<svg xmlns="http://www.w3.org/2000/svg" xmlns:xlink="http://www.w3.org/1999/xlink" width="2020" zoomAndPan="magnify" viewBox="0 0 1515 419.249996" height="559" preserveAspectRatio="xMidYMid meet" version="1.0"><defs><g/></defs><g fill="#ffffff" fill-opacity="1"><g transform="translate(45.453479, 282.827871)"><g><path d="M 85.90625 0 L 34.078125 0 L 34.078125 -262.21875 L 85.90625 -262.21875 L 85.90625 -155.140625 L 91.65625 -155.140625 L 179.1875 -262.21875 L 232.265625 -262.21875 L 232.265625 -257.734375 L 135.78125 -138.46875 L 242.3125 -4.484375 L 242.3125 0 L 183.671875 0 L 91.65625 -113.171875 L 85.90625 -113.171875 Z M 85.90625 0 "/></g></g><g transform="translate(287.764618, 282.827871)"><g><path d="M 143.671875 0 L 91.828125 0 L 91.828125 -102.953125 L 1.25 -262.21875 L 56.859375 -262.21875 L 116.765625 -159.09375 L 121.25 -159.09375 L 179.890625 -262.21875 L 234.25 -262.21875 L 143.671875 -102.953125 Z M 143.671875 0 "/></g></g><g transform="translate(523.260196, 282.827871)"><g><path d="M 139 3.765625 C 102.894531 3.765625 76.113281 -4.8125 58.65625 -21.96875 C 41.195312 -39.125 32.46875 -64.5625 32.46875 -98.28125 L 32.46875 -262.21875 L 83.21875 -262.21875 L 83.21875 -98.640625 C 83.21875 -79.515625 87.820312 -65.164062 97.03125 -55.59375 C 106.238281 -46.03125 120.226562 -41.25 139 -41.25 C 176.1875 -41.25 194.78125 -60.378906 194.78125 -98.640625 L 194.78125 -262.21875 L 245.546875 -262.21875 L 245.546875 -98.28125 C 245.546875 -64.5625 236.816406 -39.125 219.359375 -21.96875 C 201.898438 -4.8125 175.113281 3.765625 139 3.765625 Z M 139 3.765625 "/></g></g><g transform="translate(801.263354, 282.827871)"><g><path d="M 210.203125 -262.21875 L 210.203125 -218.640625 L 134.515625 -218.640625 L 134.515625 0 L 82.859375 0 L 82.859375 -218.640625 L 7.171875 -218.640625 L 7.171875 -262.21875 Z M 210.203125 -262.21875 "/></g></g><g transform="translate(1018.643889, 282.827871)"><g><path d="M 85.90625 -115.15625 L 85.90625 -43.40625 L 211.109375 -43.40625 L 211.109375 0 L 34.078125 0 L 34.078125 -262.21875 L 208.234375 -262.21875 L 208.234375 -218.8125 L 85.90625 -218.8125 L 85.90625 -157.484375 L 192.8125 -157.484375 L 192.8125 -115.15625 Z M 85.90625 -115.15625 "/></g></g><g transform="translate(1244.095482, 282.827871)"><g><path d="M 85.90625 -115.15625 L 85.90625 -43.40625 L 211.109375 -43.40625 L 211.109375 0 L 34.078125 0 L 34.078125 -262.21875 L 208.234375 -262.21875 L 208.234375 -218.8125 L 85.90625 -218.8125 L 85.90625 -157.484375 L 192.8125 -157.484375 L 192.8125 -115.15625 Z M 85.90625 -115.15625 "/></g></g></g><g fill="#ffffff" fill-opacity="1"><g transform="translate(80.199319, 397.039011)"><g><path d="M 18.953125 0 L 10.765625 0 L 10.765625 -71.25 L 21.046875 -71.25 L 55.796875 -16.8125 L 57.015625 -17.015625 L 57.015625 -71.25 L 65.15625 -71.25 L 65.15625 0 L 56.390625 0 L 20.171875 -58.234375 L 18.953125 -58.046875 Z M 18.953125 0 "/></g></g></g><g fill="#ffffff" fill-opacity="1"><g transform="translate(156.174555, 397.039011)"><g><path d="M 22.171875 1.03125 C 16.878906 1.03125 12.742188 -0.347656 9.765625 -3.109375 C 6.796875 -5.878906 5.3125 -9.832031 5.3125 -14.96875 C 5.3125 -18.144531 5.96875 -20.828125 7.28125 -23.015625 C 8.601562 -25.210938 10.644531 -27 13.40625 -28.375 C 16.164062 -29.757812 19.769531 -30.828125 24.21875 -31.578125 C 28.125 -32.234375 31.085938 -32.96875 33.109375 -33.78125 C 35.140625 -34.59375 36.503906 -35.5 37.203125 -36.5 C 37.910156 -37.507812 38.265625 -38.78125 38.265625 -40.3125 C 38.265625 -42.738281 37.425781 -44.601562 35.75 -45.90625 C 34.070312 -47.207031 31.382812 -47.859375 27.6875 -47.859375 C 24.207031 -47.859375 21.222656 -47.179688 18.734375 -45.828125 C 16.253906 -44.484375 13.972656 -42.476562 11.890625 -39.8125 L 10.921875 -39.8125 L 7.015625 -45.328125 C 9.285156 -48.210938 12.175781 -50.507812 15.6875 -52.21875 C 19.195312 -53.925781 23.195312 -54.78125 27.6875 -54.78125 C 34.019531 -54.78125 38.6875 -53.390625 41.6875 -50.609375 C 44.695312 -47.835938 46.203125 -44 46.203125 -39.09375 L 46.203125 -10.578125 C 46.203125 -7.585938 47.46875 -6.09375 50 -6.09375 C 50.84375 -6.09375 51.65625 -6.238281 52.4375 -6.53125 L 53.125 -6.328125 L 54.046875 -0.828125 C 53.460938 -0.441406 52.691406 -0.144531 51.734375 0.0625 C 50.773438 0.28125 49.789062 0.390625 48.78125 0.390625 C 45.820312 0.390625 43.585938 -0.257812 42.078125 -1.5625 C 40.566406 -2.863281 39.601562 -4.78125 39.1875 -7.3125 L 38.15625 -7.40625 C 36.632812 -4.582031 34.570312 -2.46875 31.96875 -1.0625 C 29.375 0.332031 26.109375 1.03125 22.171875 1.03125 Z M 23.921875 -5.3125 C 26.910156 -5.3125 29.503906 -6 31.703125 -7.375 C 33.898438 -8.757812 35.582031 -10.703125 36.75 -13.203125 C 37.914062 -15.703125 38.5 -18.59375 38.5 -21.875 L 38.5 -28.703125 L 37.578125 -28.90625 C 36.367188 -28.0625 34.90625 -27.351562 33.1875 -26.78125 C 31.46875 -26.207031 29.066406 -25.695312 25.984375 -25.25 C 22.859375 -24.820312 20.378906 -24.171875 18.546875 -23.296875 C 16.710938 -22.421875 15.40625 -21.304688 14.625 -19.953125 C 13.84375 -18.609375 13.453125 -16.945312 13.453125 -14.96875 C 13.453125 -11.8125 14.375 -9.410156 16.21875 -7.765625 C 18.070312 -6.128906 20.640625 -5.3125 23.921875 -5.3125 Z M 23.921875 -5.3125 "/></g></g></g><g fill="#ffffff" fill-opacity="1"><g transform="translate(211.779265, 397.039011)"><g><path d="M 13.359375 -64.140625 C 11.660156 -64.140625 10.285156 -64.664062 9.234375 -65.71875 C 8.179688 -66.78125 7.65625 -68.117188 7.65625 -69.734375 C 7.65625 -71.359375 8.179688 -72.695312 9.234375 -73.75 C 10.285156 -74.8125 11.660156 -75.34375 13.359375 -75.34375 C 15.046875 -75.34375 16.414062 -74.8125 17.46875 -73.75 C 18.53125 -72.695312 19.0625 -71.359375 19.0625 -69.734375 C 19.0625 -68.117188 18.53125 -66.78125 17.46875 -65.71875 C 16.414062 -64.664062 15.046875 -64.140625 13.359375 -64.140625 Z M 17.296875 0 L 9.359375 0 L 9.359375 -53.75 L 17.296875 -53.75 Z M 17.296875 0 "/></g></g></g><g fill="#ffffff" fill-opacity="1"><g transform="translate(238.436388, 397.039011)"><g><path d="M 21.390625 1.03125 C 17.585938 1.03125 14.597656 -0.046875 12.421875 -2.203125 C 10.242188 -4.367188 9.15625 -7.597656 9.15625 -11.890625 L 9.15625 -75.34375 L 17.109375 -75.34375 L 17.109375 -12.421875 C 17.109375 -10.179688 17.535156 -8.566406 18.390625 -7.578125 C 19.253906 -6.585938 20.597656 -6.09375 22.421875 -6.09375 C 23.523438 -6.09375 24.644531 -6.269531 25.78125 -6.625 L 26.46875 -6.4375 L 27.390625 -0.1875 C 26.804688 0.195312 25.96875 0.492188 24.875 0.703125 C 23.789062 0.921875 22.628906 1.03125 21.390625 1.03125 Z M 21.390625 1.03125 "/></g></g></g><g fill="#ffffff" fill-opacity="1"><g transform="translate(267.676376, 397.039011)"><g><path d="M 24.515625 1.03125 C 21.140625 1.03125 18.007812 0.582031 15.125 -0.3125 C 12.25 -1.207031 9.820312 -2.429688 7.84375 -3.984375 C 5.863281 -5.546875 4.46875 -7.304688 3.65625 -9.265625 L 8.328125 -14.140625 L 9.359375 -14.140625 C 11.109375 -11.472656 13.21875 -9.460938 15.6875 -8.109375 C 18.15625 -6.765625 21.097656 -6.09375 24.515625 -6.09375 C 28.472656 -6.09375 31.484375 -6.863281 33.546875 -8.40625 C 35.617188 -9.945312 36.65625 -12.097656 36.65625 -14.859375 C 36.65625 -16.972656 36.023438 -18.71875 34.765625 -20.09375 C 33.515625 -21.476562 31.492188 -22.515625 28.703125 -23.203125 L 19.640625 -25.4375 C 14.796875 -26.601562 11.257812 -28.453125 9.03125 -30.984375 C 6.8125 -33.523438 5.703125 -36.664062 5.703125 -40.40625 C 5.703125 -43.320312 6.445312 -45.859375 7.9375 -48.015625 C 9.4375 -50.179688 11.59375 -51.847656 14.40625 -53.015625 C 17.21875 -54.191406 20.554688 -54.78125 24.421875 -54.78125 C 29.359375 -54.78125 33.25 -54.085938 36.09375 -52.703125 C 38.9375 -51.328125 41.148438 -49.40625 42.734375 -46.9375 L 38.265625 -42.546875 L 37.28125 -42.546875 C 35.5625 -44.523438 33.6875 -45.953125 31.65625 -46.828125 C 29.625 -47.710938 27.210938 -48.15625 24.421875 -48.15625 C 20.878906 -48.15625 18.164062 -47.519531 16.28125 -46.25 C 14.394531 -44.976562 13.453125 -43.144531 13.453125 -40.75 C 13.453125 -38.570312 14.117188 -36.816406 15.453125 -35.484375 C 16.785156 -34.148438 19.109375 -33.078125 22.421875 -32.265625 L 31.34375 -30.125 C 36.019531 -29.019531 39.394531 -27.179688 41.46875 -24.609375 C 43.550781 -22.046875 44.59375 -18.832031 44.59375 -14.96875 C 44.59375 -11.8125 43.84375 -9.03125 42.34375 -6.625 C 40.851562 -4.21875 38.597656 -2.335938 35.578125 -0.984375 C 32.554688 0.359375 28.867188 1.03125 24.515625 1.03125 Z M 24.515625 1.03125 "/></g></g></g><g fill="#ffffff" fill-opacity="1"><g transform="translate(317.384356, 397.039011)"><g/></g></g><g fill="#ffffff" fill-opacity="1"><g transform="translate(341.848479, 397.039011)"><g><path d="M 55.609375 -71.25 L 55.609375 -64.140625 L 33.28125 -64.140625 L 33.28125 0 L 24.953125 0 L 24.953125 -64.140625 L 2.625 -64.140625 L 2.625 -71.25 Z M 55.609375 -71.25 "/></g></g></g><g fill="#ffffff" fill-opacity="1"><g transform="translate(400.036056, 397.039011)"><g><path d="M 9.359375 0 L 9.359375 -75.34375 L 17.296875 -75.34375 L 17.296875 -46.109375 L 18.328125 -45.90625 C 22.160156 -51.820312 27.695312 -54.78125 34.9375 -54.78125 C 41.40625 -54.78125 46.09375 -53.128906 49 -49.828125 C 51.90625 -46.535156 53.359375 -41.460938 53.359375 -34.609375 L 53.359375 0 L 45.421875 0 L 45.421875 -34.40625 C 45.421875 -37.65625 45.003906 -40.257812 44.171875 -42.21875 C 43.347656 -44.1875 42.066406 -45.617188 40.328125 -46.515625 C 38.585938 -47.410156 36.304688 -47.859375 33.484375 -47.859375 C 28.609375 -47.859375 24.691406 -46.28125 21.734375 -43.125 C 18.773438 -39.976562 17.296875 -34.796875 17.296875 -27.578125 L 17.296875 0 Z M 9.359375 0 "/></g></g></g><g fill="#ffffff" fill-opacity="1"><g transform="translate(461.927364, 397.039011)"><g><path d="M 22.171875 1.03125 C 16.878906 1.03125 12.742188 -0.347656 9.765625 -3.109375 C 6.796875 -5.878906 5.3125 -9.832031 5.3125 -14.96875 C 5.3125 -18.144531 5.96875 -20.828125 7.28125 -23.015625 C 8.601562 -25.210938 10.644531 -27 13.40625 -28.375 C 16.164062 -29.757812 19.769531 -30.828125 24.21875 -31.578125 C 28.125 -32.234375 31.085938 -32.96875 33.109375 -33.78125 C 35.140625 -34.59375 36.503906 -35.5 37.203125 -36.5 C 37.910156 -37.507812 38.265625 -38.78125 38.265625 -40.3125 C 38.265625 -42.738281 37.425781 -44.601562 35.75 -45.90625 C 34.070312 -47.207031 31.382812 -47.859375 27.6875 -47.859375 C 24.207031 -47.859375 21.222656 -47.179688 18.734375 -45.828125 C 16.253906 -44.484375 13.972656 -42.476562 11.890625 -39.8125 L 10.921875 -39.8125 L 7.015625 -45.328125 C 9.285156 -48.210938 12.175781 -50.507812 15.6875 -52.21875 C 19.195312 -53.925781 23.195312 -54.78125 27.6875 -54.78125 C 34.019531 -54.78125 38.6875 -53.390625 41.6875 -50.609375 C 44.695312 -47.835938 46.203125 -44 46.203125 -39.09375 L 46.203125 -10.578125 C 46.203125 -7.585938 47.46875 -6.09375 50 -6.09375 C 50.84375 -6.09375 51.65625 -6.238281 52.4375 -6.53125 L 53.125 -6.328125 L 54.046875 -0.828125 C 53.460938 -0.441406 52.691406 -0.144531 51.734375 0.0625 C 50.773438 0.28125 49.789062 0.390625 48.78125 0.390625 C 45.820312 0.390625 43.585938 -0.257812 42.078125 -1.5625 C 40.566406 -2.863281 39.601562 -4.78125 39.1875 -7.3125 L 38.15625 -7.40625 C 36.632812 -4.582031 34.570312 -2.46875 31.96875 -1.0625 C 29.375 0.332031 26.109375 1.03125 22.171875 1.03125 Z M 23.921875 -5.3125 C 26.910156 -5.3125 29.503906 -6 31.703125 -7.375 C 33.898438 -8.757812 35.582031 -10.703125 36.75 -13.203125 C 37.914062 -15.703125 38.5 -18.59375 38.5 -21.875 L 38.5 -28.703125 L 37.578125 -28.90625 C 36.367188 -28.0625 34.90625 -27.351562 33.1875 -26.78125 C 31.46875 -26.207031 29.066406 -25.695312 25.984375 -25.25 C 22.859375 -24.820312 20.378906 -24.171875 18.546875 -23.296875 C 16.710938 -22.421875 15.40625 -21.304688 14.625 -19.953125 C 13.84375 -18.609375 13.453125 -16.945312 13.453125 -14.96875 C 13.453125 -11.8125 14.375 -9.410156 16.21875 -7.765625 C 18.070312 -6.128906 20.640625 -5.3125 23.921875 -5.3125 Z M 23.921875 -5.3125 "/></g></g></g><g fill="#ffffff" fill-opacity="1"><g transform="translate(517.532075, 397.039011)"><g><path d="M 36.359375 -8.53125 L 38.890625 -2.828125 C 37.617188 -1.554688 35.953125 -0.597656 33.890625 0.046875 C 31.828125 0.703125 29.59375 1.03125 27.1875 1.03125 C 16.925781 1.03125 11.796875 -4.171875 11.796875 -14.578125 L 11.796875 -47.21875 L 2.4375 -47.21875 L 2.4375 -53.75 L 11.796875 -53.75 L 11.796875 -65.15625 L 19.734375 -66.484375 L 19.734375 -53.75 L 37.046875 -53.75 L 37.046875 -47.21875 L 19.734375 -47.21875 L 19.734375 -15.359375 C 19.734375 -9.179688 22.414062 -6.09375 27.78125 -6.09375 C 30.707031 -6.09375 33.222656 -6.90625 35.328125 -8.53125 Z M 36.359375 -8.53125 "/></g></g></g><g fill="#ffffff" fill-opacity="1"><g transform="translate(558.468058, 397.039011)"><g/></g></g><g fill="#ffffff" fill-opacity="1"><g transform="translate(582.932182, 397.039011)"><g><path d="M 18.515625 0 L 10.765625 0 L 10.765625 -71.25 L 23.203125 -71.25 L 44.78125 -10.921875 L 45.8125 -10.921875 L 67.40625 -71.25 L 79.390625 -71.25 L 79.390625 0 L 71.453125 0 L 71.453125 -58.140625 L 70.234375 -58.34375 L 49.171875 0 L 40.84375 0 L 19.734375 -58.34375 L 18.515625 -58.140625 Z M 18.515625 0 "/></g></g></g><g fill="#ffffff" fill-opacity="1"><g transform="translate(673.137568, 397.039011)"><g><path d="M 22.171875 1.03125 C 16.878906 1.03125 12.742188 -0.347656 9.765625 -3.109375 C 6.796875 -5.878906 5.3125 -9.832031 5.3125 -14.96875 C 5.3125 -18.144531 5.96875 -20.828125 7.28125 -23.015625 C 8.601562 -25.210938 10.644531 -27 13.40625 -28.375 C 16.164062 -29.757812 19.769531 -30.828125 24.21875 -31.578125 C 28.125 -32.234375 31.085938 -32.96875 33.109375 -33.78125 C 35.140625 -34.59375 36.503906 -35.5 37.203125 -36.5 C 37.910156 -37.507812 38.265625 -38.78125 38.265625 -40.3125 C 38.265625 -42.738281 37.425781 -44.601562 35.75 -45.90625 C 34.070312 -47.207031 31.382812 -47.859375 27.6875 -47.859375 C 24.207031 -47.859375 21.222656 -47.179688 18.734375 -45.828125 C 16.253906 -44.484375 13.972656 -42.476562 11.890625 -39.8125 L 10.921875 -39.8125 L 7.015625 -45.328125 C 9.285156 -48.210938 12.175781 -50.507812 15.6875 -52.21875 C 19.195312 -53.925781 23.195312 -54.78125 27.6875 -54.78125 C 34.019531 -54.78125 38.6875 -53.390625 41.6875 -50.609375 C 44.695312 -47.835938 46.203125 -44 46.203125 -39.09375 L 46.203125 -10.578125 C 46.203125 -7.585938 47.46875 -6.09375 50 -6.09375 C 50.84375 -6.09375 51.65625 -6.238281 52.4375 -6.53125 L 53.125 -6.328125 L 54.046875 -0.828125 C 53.460938 -0.441406 52.691406 -0.144531 51.734375 0.0625 C 50.773438 0.28125 49.789062 0.390625 48.78125 0.390625 C 45.820312 0.390625 43.585938 -0.257812 42.078125 -1.5625 C 40.566406 -2.863281 39.601562 -4.78125 39.1875 -7.3125 L 38.15625 -7.40625 C 36.632812 -4.582031 34.570312 -2.46875 31.96875 -1.0625 C 29.375 0.332031 26.109375 1.03125 22.171875 1.03125 Z M 23.921875 -5.3125 C 26.910156 -5.3125 29.503906 -6 31.703125 -7.375 C 33.898438 -8.757812 35.582031 -10.703125 36.75 -13.203125 C 37.914062 -15.703125 38.5 -18.59375 38.5 -21.875 L 38.5 -28.703125 L 37.578125 -28.90625 C 36.367188 -28.0625 34.90625 -27.351562 33.1875 -26.78125 C 31.46875 -26.207031 29.066406 -25.695312 25.984375 -25.25 C 22.859375 -24.820312 20.378906 -24.171875 18.546875 -23.296875 C 16.710938 -22.421875 15.40625 -21.304688 14.625 -19.953125 C 13.84375 -18.609375 13.453125 -16.945312 13.453125 -14.96875 C 13.453125 -11.8125 14.375 -9.410156 16.21875 -7.765625 C 18.070312 -6.128906 20.640625 -5.3125 23.921875 -5.3125 Z M 23.921875 -5.3125 "/></g></g></g><g fill="#ffffff" fill-opacity="1"><g transform="translate(728.742257, 397.039011)"><g><path d="M 17.296875 0 L 9.359375 0 L 9.359375 -75.34375 L 17.296875 -75.34375 L 17.296875 -31.34375 L 18.625 -31.34375 L 38.59375 -53.75 L 46.9375 -53.75 L 46.9375 -52.640625 L 25.640625 -28.515625 L 48.984375 -1.21875 L 48.984375 0 L 40.109375 0 L 18.625 -24.859375 L 17.296875 -24.859375 Z M 17.296875 0 "/></g></g></g><g fill="#ffffff" fill-opacity="1"><g transform="translate(778.742636, 397.039011)"><g><path d="M 51.21875 -25.046875 L 14.28125 -24.953125 C 14.539062 -18.453125 16.125 -13.679688 19.03125 -10.640625 C 21.9375 -7.609375 25.910156 -6.09375 30.953125 -6.09375 C 34.785156 -6.09375 37.867188 -6.773438 40.203125 -8.140625 C 42.546875 -9.503906 44.382812 -11.648438 45.71875 -14.578125 L 46.734375 -14.578125 L 51.90625 -11.5 C 50.34375 -7.601562 47.847656 -4.539062 44.421875 -2.3125 C 40.992188 -0.0820312 36.503906 1.03125 30.953125 1.03125 C 25.753906 1.03125 21.285156 0.00390625 17.546875 -2.046875 C 13.804688 -4.097656 10.925781 -7.203125 8.90625 -11.359375 C 6.894531 -15.515625 5.890625 -20.679688 5.890625 -26.859375 C 5.890625 -32.960938 6.953125 -38.109375 9.078125 -42.296875 C 11.210938 -46.492188 14.125 -49.625 17.8125 -51.6875 C 21.5 -53.75 25.710938 -54.78125 30.453125 -54.78125 C 37.347656 -54.78125 42.726562 -52.835938 46.59375 -48.953125 C 50.457031 -45.066406 52.40625 -39.304688 52.4375 -31.671875 C 52.4375 -28.679688 52.375 -26.671875 52.25 -25.640625 Z M 44.59375 -31.671875 C 44.46875 -37.390625 43.203125 -41.546875 40.796875 -44.140625 C 38.390625 -46.742188 34.941406 -48.046875 30.453125 -48.046875 C 25.742188 -48.046875 22.050781 -46.738281 19.375 -44.125 C 16.695312 -41.507812 15.0625 -37.359375 14.46875 -31.671875 Z M 44.59375 -31.671875 "/></g></g></g><g fill="#ffffff" fill-opacity="1"><g transform="translate(836.053013, 397.039011)"><g/></g></g><g fill="#ffffff" fill-opacity="1"><g transform="translate(860.517137, 397.039011)"><g><path d="M 64.140625 0 L 55.171875 0 L 48.59375 -19.546875 L 18.234375 -19.546875 L 11.59375 0 L 2.828125 0 L 27.6875 -71.25 L 39.28125 -71.25 Z M 32.796875 -62.625 L 20.5625 -26.5625 L 46.203125 -26.5625 L 34.015625 -62.625 Z M 32.796875 -62.625 "/></g></g></g><g fill="#ffffff" fill-opacity="1"><g transform="translate(927.476664, 397.039011)"><g/></g></g><g fill="#ffffff" fill-opacity="1"><g transform="translate(951.940833, 397.039011)"><g><path d="M 31.140625 1.03125 C 26.660156 1.03125 22.640625 0.421875 19.078125 -0.796875 C 15.523438 -2.015625 12.5625 -3.613281 10.1875 -5.59375 C 7.8125 -7.582031 6.039062 -9.765625 4.875 -12.140625 L 9.453125 -17.6875 L 10.671875 -17.6875 C 15.085938 -10.25 21.910156 -6.53125 31.140625 -6.53125 C 36.503906 -6.53125 40.492188 -7.648438 43.109375 -9.890625 C 45.722656 -12.128906 47.03125 -15.25 47.03125 -19.25 C 47.03125 -21.59375 46.597656 -23.578125 45.734375 -25.203125 C 44.878906 -26.828125 43.457031 -28.210938 41.46875 -29.359375 C 39.488281 -30.515625 36.796875 -31.515625 33.390625 -32.359375 L 25.046875 -34.40625 C 18.835938 -35.90625 14.265625 -38.285156 11.328125 -41.546875 C 8.390625 -44.816406 6.921875 -48.953125 6.921875 -53.953125 C 6.921875 -57.492188 7.828125 -60.648438 9.640625 -63.421875 C 11.460938 -66.203125 14.128906 -68.375 17.640625 -69.9375 C 21.148438 -71.5 25.34375 -72.28125 30.21875 -72.28125 C 35.582031 -72.28125 40.109375 -71.523438 43.796875 -70.015625 C 47.484375 -68.503906 50.429688 -66.238281 52.640625 -63.21875 L 48.546875 -57.703125 L 47.328125 -57.703125 C 45.273438 -60.203125 42.851562 -62.035156 40.0625 -63.203125 C 37.269531 -64.378906 33.988281 -64.96875 30.21875 -64.96875 C 25.28125 -64.96875 21.550781 -64.007812 19.03125 -62.09375 C 16.507812 -60.175781 15.25 -57.523438 15.25 -54.140625 C 15.25 -50.929688 16.175781 -48.375 18.03125 -46.46875 C 19.882812 -44.570312 23.003906 -43.101562 27.390625 -42.0625 L 35.921875 -40.015625 C 42.835938 -38.390625 47.847656 -35.894531 50.953125 -32.53125 C 54.054688 -29.164062 55.609375 -24.867188 55.609375 -19.640625 C 55.609375 -15.609375 54.707031 -12.039062 52.90625 -8.9375 C 51.101562 -5.832031 48.363281 -3.394531 44.6875 -1.625 C 41.019531 0.144531 36.503906 1.03125 31.140625 1.03125 Z M 31.140625 1.03125 "/></g></g></g><g fill="#ffffff" fill-opacity="1"><g transform="translate(1013.003652, 397.039011)"><g><path d="M 36.359375 -8.53125 L 38.890625 -2.828125 C 37.617188 -1.554688 35.953125 -0.597656 33.890625 0.046875 C 31.828125 0.703125 29.59375 1.03125 27.1875 1.03125 C 16.925781 1.03125 11.796875 -4.171875 11.796875 -14.578125 L 11.796875 -47.21875 L 2.4375 -47.21875 L 2.4375 -53.75 L 11.796875 -53.75 L 11.796875 -65.15625 L 19.734375 -66.484375 L 19.734375 -53.75 L 37.046875 -53.75 L 37.046875 -47.21875 L 19.734375 -47.21875 L 19.734375 -15.359375 C 19.734375 -9.179688 22.414062 -6.09375 27.78125 -6.09375 C 30.707031 -6.09375 33.222656 -6.90625 35.328125 -8.53125 Z M 36.359375 -8.53125 "/></g></g></g><g fill="#ffffff" fill-opacity="1"><g transform="translate(1053.939636, 397.039011)"><g><path d="M 22.171875 1.03125 C 16.878906 1.03125 12.742188 -0.347656 9.765625 -3.109375 C 6.796875 -5.878906 5.3125 -9.832031 5.3125 -14.96875 C 5.3125 -18.144531 5.96875 -20.828125 7.28125 -23.015625 C 8.601562 -25.210938 10.644531 -27 13.40625 -28.375 C 16.164062 -29.757812 19.769531 -30.828125 24.21875 -31.578125 C 28.125 -32.234375 31.085938 -32.96875 33.109375 -33.78125 C 35.140625 -34.59375 36.503906 -35.5 37.203125 -36.5 C 37.910156 -37.507812 38.265625 -38.78125 38.265625 -40.3125 C 38.265625 -42.738281 37.425781 -44.601562 35.75 -45.90625 C 34.070312 -47.207031 31.382812 -47.859375 27.6875 -47.859375 C 24.207031 -47.859375 21.222656 -47.179688 18.734375 -45.828125 C 16.253906 -44.484375 13.972656 -42.476562 11.890625 -39.8125 L 10.921875 -39.8125 L 7.015625 -45.328125 C 9.285156 -48.210938 12.175781 -50.507812 15.6875 -52.21875 C 19.195312 -53.925781 23.195312 -54.78125 27.6875 -54.78125 C 34.019531 -54.78125 38.6875 -53.390625 41.6875 -50.609375 C 44.695312 -47.835938 46.203125 -44 46.203125 -39.09375 L 46.203125 -10.578125 C 46.203125 -7.585938 47.46875 -6.09375 50 -6.09375 C 50.84375 -6.09375 51.65625 -6.238281 52.4375 -6.53125 L 53.125 -6.328125 L 54.046875 -0.828125 C 53.460938 -0.441406 52.691406 -0.144531 51.734375 0.0625 C 50.773438 0.28125 49.789062 0.390625 48.78125 0.390625 C 45.820312 0.390625 43.585938 -0.257812 42.078125 -1.5625 C 40.566406 -2.863281 39.601562 -4.78125 39.1875 -7.3125 L 38.15625 -7.40625 C 36.632812 -4.582031 34.570312 -2.46875 31.96875 -1.0625 C 29.375 0.332031 26.109375 1.03125 22.171875 1.03125 Z M 23.921875 -5.3125 C 26.910156 -5.3125 29.503906 -6 31.703125 -7.375 C 33.898438 -8.757812 35.582031 -10.703125 36.75 -13.203125 C 37.914062 -15.703125 38.5 -18.59375 38.5 -21.875 L 38.5 -28.703125 L 37.578125 -28.90625 C 36.367188 -28.0625 34.90625 -27.351562 33.1875 -26.78125 C 31.46875 -26.207031 29.066406 -25.695312 25.984375 -25.25 C 22.859375 -24.820312 20.378906 -24.171875 18.546875 -23.296875 C 16.710938 -22.421875 15.40625 -21.304688 14.625 -19.953125 C 13.84375 -18.609375 13.453125 -16.945312 13.453125 -14.96875 C 13.453125 -11.8125 14.375 -9.410156 16.21875 -7.765625 C 18.070312 -6.128906 20.640625 -5.3125 23.921875 -5.3125 Z M 23.921875 -5.3125 "/></g></g></g><g fill="#ffffff" fill-opacity="1"><g transform="translate(1109.544324, 397.039011)"><g><path d="M 36.359375 -8.53125 L 38.890625 -2.828125 C 37.617188 -1.554688 35.953125 -0.597656 33.890625 0.046875 C 31.828125 0.703125 29.59375 1.03125 27.1875 1.03125 C 16.925781 1.03125 11.796875 -4.171875 11.796875 -14.578125 L 11.796875 -47.21875 L 2.4375 -47.21875 L 2.4375 -53.75 L 11.796875 -53.75 L 11.796875 -65.15625 L 19.734375 -66.484375 L 19.734375 -53.75 L 37.046875 -53.75 L 37.046875 -47.21875 L 19.734375 -47.21875 L 19.734375 -15.359375 C 19.734375 -9.179688 22.414062 -6.09375 27.78125 -6.09375 C 30.707031 -6.09375 33.222656 -6.90625 35.328125 -8.53125 Z M 36.359375 -8.53125 "/></g></g></g><g fill="#ffffff" fill-opacity="1"><g transform="translate(1150.480307, 397.039011)"><g><path d="M 51.21875 -25.046875 L 14.28125 -24.953125 C 14.539062 -18.453125 16.125 -13.679688 19.03125 -10.640625 C 21.9375 -7.609375 25.910156 -6.09375 30.953125 -6.09375 C 34.785156 -6.09375 37.867188 -6.773438 40.203125 -8.140625 C 42.546875 -9.503906 44.382812 -11.648438 45.71875 -14.578125 L 46.734375 -14.578125 L 51.90625 -11.5 C 50.34375 -7.601562 47.847656 -4.539062 44.421875 -2.3125 C 40.992188 -0.0820312 36.503906 1.03125 30.953125 1.03125 C 25.753906 1.03125 21.285156 0.00390625 17.546875 -2.046875 C 13.804688 -4.097656 10.925781 -7.203125 8.90625 -11.359375 C 6.894531 -15.515625 5.890625 -20.679688 5.890625 -26.859375 C 5.890625 -32.960938 6.953125 -38.109375 9.078125 -42.296875 C 11.210938 -46.492188 14.125 -49.625 17.8125 -51.6875 C 21.5 -53.75 25.710938 -54.78125 30.453125 -54.78125 C 37.347656 -54.78125 42.726562 -52.835938 46.59375 -48.953125 C 50.457031 -45.066406 52.40625 -39.304688 52.4375 -31.671875 C 52.4375 -28.679688 52.375 -26.671875 52.25 -25.640625 Z M 44.59375 -31.671875 C 44.46875 -37.390625 43.203125 -41.546875 40.796875 -44.140625 C 38.390625 -46.742188 34.941406 -48.046875 30.453125 -48.046875 C 25.742188 -48.046875 22.050781 -46.738281 19.375 -44.125 C 16.695312 -41.507812 15.0625 -37.359375 14.46875 -31.671875 Z M 44.59375 -31.671875 "/></g></g></g><g fill="#ffffff" fill-opacity="1"><g transform="translate(1207.790684, 397.039011)"><g><path d="M 9.359375 0 L 9.359375 -53.75 L 16.90625 -53.75 L 16.90625 -45.8125 L 17.9375 -45.625 C 19.757812 -48.644531 21.957031 -50.925781 24.53125 -52.46875 C 27.113281 -54.007812 30.210938 -54.78125 33.828125 -54.78125 C 37.984375 -54.78125 41.195312 -53.988281 43.46875 -52.40625 C 45.75 -50.832031 47.519531 -48.289062 48.78125 -44.78125 L 49.8125 -44.78125 C 51.664062 -48.070312 53.945312 -50.5625 56.65625 -52.25 C 59.363281 -53.9375 62.703125 -54.78125 66.671875 -54.78125 C 72.191406 -54.78125 76.304688 -53.285156 79.015625 -50.296875 C 81.734375 -47.304688 83.09375 -42.757812 83.09375 -36.65625 L 83.09375 0 L 75.15625 0 L 75.15625 -36.453125 C 75.15625 -40.347656 74.332031 -43.222656 72.6875 -45.078125 C 71.050781 -46.929688 68.410156 -47.859375 64.765625 -47.859375 C 60.484375 -47.859375 56.984375 -46.296875 54.265625 -43.171875 C 51.554688 -40.054688 50.203125 -34.925781 50.203125 -27.78125 L 50.203125 0 L 42.25 0 L 42.25 -36.453125 C 42.25 -40.347656 41.425781 -43.222656 39.78125 -45.078125 C 38.144531 -46.929688 35.507812 -47.859375 31.875 -47.859375 C 27.582031 -47.859375 24.078125 -46.347656 21.359375 -43.328125 C 18.648438 -40.304688 17.296875 -35.398438 17.296875 -28.609375 L 17.296875 0 Z M 9.359375 0 "/></g></g></g><g fill="#ffffff" fill-opacity="1"><g transform="translate(1299.409314, 397.039011)"><g><path d="M 51.21875 -25.046875 L 14.28125 -24.953125 C 14.539062 -18.453125 16.125 -13.679688 19.03125 -10.640625 C 21.9375 -7.609375 25.910156 -6.09375 30.953125 -6.09375 C 34.785156 -6.09375 37.867188 -6.773438 40.203125 -8.140625 C 42.546875 -9.503906 44.382812 -11.648438 45.71875 -14.578125 L 46.734375 -14.578125 L 51.90625 -11.5 C 50.34375 -7.601562 47.847656 -4.539062 44.421875 -2.3125 C 40.992188 -0.0820312 36.503906 1.03125 30.953125 1.03125 C 25.753906 1.03125 21.285156 0.00390625 17.546875 -2.046875 C 13.804688 -4.097656 10.925781 -7.203125 8.90625 -11.359375 C 6.894531 -15.515625 5.890625 -20.679688 5.890625 -26.859375 C 5.890625 -32.960938 6.953125 -38.109375 9.078125 -42.296875 C 11.210938 -46.492188 14.125 -49.625 17.8125 -51.6875 C 21.5 -53.75 25.710938 -54.78125 30.453125 -54.78125 C 37.347656 -54.78125 42.726562 -52.835938 46.59375 -48.953125 C 50.457031 -45.066406 52.40625 -39.304688 52.4375 -31.671875 C 52.4375 -28.679688 52.375 -26.671875 52.25 -25.640625 Z M 44.59375 -31.671875 C 44.46875 -37.390625 43.203125 -41.546875 40.796875 -44.140625 C 38.390625 -46.742188 34.941406 -48.046875 30.453125 -48.046875 C 25.742188 -48.046875 22.050781 -46.738281 19.375 -44.125 C 16.695312 -41.507812 15.0625 -37.359375 14.46875 -31.671875 Z M 44.59375 -31.671875 "/></g></g></g><g fill="#ffffff" fill-opacity="1"><g transform="translate(1356.71969, 397.039011)"><g><path d="M 9.359375 0 L 9.359375 -53.75 L 16.90625 -53.75 L 16.90625 -45.328125 L 17.9375 -45.078125 C 19.71875 -48.234375 22 -50.640625 24.78125 -52.296875 C 27.5625 -53.953125 30.945312 -54.78125 34.9375 -54.78125 C 41.40625 -54.78125 46.09375 -53.128906 49 -49.828125 C 51.90625 -46.535156 53.359375 -41.460938 53.359375 -34.609375 L 53.359375 0 L 45.421875 0 L 45.421875 -34.40625 C 45.421875 -37.65625 45.003906 -40.257812 44.171875 -42.21875 C 43.347656 -44.1875 42.066406 -45.617188 40.328125 -46.515625 C 38.585938 -47.410156 36.304688 -47.859375 33.484375 -47.859375 C 28.640625 -47.859375 24.726562 -46.257812 21.75 -43.0625 C 18.78125 -39.863281 17.296875 -34.703125 17.296875 -27.578125 L 17.296875 0 Z M 9.359375 0 "/></g></g></g><g fill="#ffffff" fill-opacity="1"><g transform="translate(1418.611045, 397.039011)"><g><path d="M 36.359375 -8.53125 L 38.890625 -2.828125 C 37.617188 -1.554688 35.953125 -0.597656 33.890625 0.046875 C 31.828125 0.703125 29.59375 1.03125 27.1875 1.03125 C 16.925781 1.03125 11.796875 -4.171875 11.796875 -14.578125 L 11.796875 -47.21875 L 2.4375 -47.21875 L 2.4375 -53.75 L 11.796875 -53.75 L 11.796875 -65.15625 L 19.734375 -66.484375 L 19.734375 -53.75 L 37.046875 -53.75 L 37.046875 -47.21875 L 19.734375 -47.21875 L 19.734375 -15.359375 C 19.734375 -9.179688 22.414062 -6.09375 27.78125 -6.09375 C 30.707031 -6.09375 33.222656 -6.90625 35.328125 -8.53125 Z M 36.359375 -8.53125 "/></g></g></g></svg>